# xmcd CD database file
# Copyright (C) 1995-1998 Ti Kan
#
# Track frame offsets:
#	150
#	15733
#	30936
#	44144
#	61354
#	77188
#	90634
#	107467
#	125673
#	140154
#	154969
#	171488
#	187069
#	199634
#
# Disc length: 2818 seconds
#
# Revision: 4
# Processed by: cddbd v1.5PL3 Copyright (c) Steve Scherf et al.
# Submitted via: CDex 1.40Beta3
#
DISCID=c70b000e
DTITLE=Banda Domínio - Juras de Amor
DYEAR=2002
DGENRE=Blues
TTITLE0=Juras de amor
TTITLE1=Amor ao telefone
TTITLE2=Um beijo pra me enlouquecer
TTITLE3=Sonho lindo
TTITLE4=Chuva e solidão
TTITLE5=Você não soube me amar
TTITLE6=Vem me dar um sinal
TTITLE7=Esta solidão
TTITLE8=Coração deserto
TTITLE9=Precisa-se de um homem
TTITLE10=Pintura íntima
TTITLE11=Jogo perigoso
TTITLE12=Namoro de peão
TTITLE13=Feito beija-flor
EXTD=YEAR: 2002 ID3G:   0
EXTT0=
EXTT1=
EXTT2=
EXTT3=
EXTT4=
EXTT5=
EXTT6=
EXTT7=
EXTT8=
EXTT9=
EXTT10=
EXTT11=
EXTT12=
EXTT13=
PLAYORDER=
